<svg width="292" height="70" viewBox="0 0 292 70" fill="none" xmlns="http://www.w3.org/2000/svg">
<path d="M39.0325 38.8725L38.0188 36.3677H29.3669L28.3532 38.9268C27.9512 39.9244 27.6157 40.5986 27.3321 40.9492C27.0509 41.2941 26.5947 41.4723 25.9534 41.4723C25.4059 41.4723 24.9324 41.2863 24.5155 40.9124C24.1037 40.5444 23.8965 40.1182 23.8965 39.6474C23.8965 39.3762 23.9409 39.0934 24.0395 38.8047C24.1333 38.5141 24.296 38.1093 24.5155 37.594L29.9612 24.6319C30.1191 24.26 30.3065 23.8125 30.5186 23.2914C30.7381 22.7683 30.9749 22.3363 31.2191 21.9895C31.4682 21.6447 31.7888 21.3677 32.1884 21.1526C32.5953 20.9396 33.0886 20.8311 33.6805 20.8311C34.2749 20.8311 34.783 20.9396 35.1874 21.1526C35.5845 21.3677 35.9051 21.6428 36.1567 21.9779C36.4009 22.3131 36.6056 22.6753 36.7733 23.0608C36.9484 23.4463 37.1605 23.9636 37.4244 24.6048L44.4511 40.2402C44.8876 41.2224 45.1046 41.9353 45.1046 42.377C45.1046 42.8419 44.8999 43.2662 44.4856 43.6556C44.0737 44.0372 43.5804 44.2328 42.9984 44.2328C42.663 44.2328 42.367 44.1767 42.1278 44.0604C41.8836 43.95 41.6863 43.797 41.5136 43.5994C41.3533 43.4057 41.1708 43.1073 40.9908 42.7005C40.8009 42.2917 39.1731 39.1805 39.0325 38.8725ZM30.4964 33.3437H36.8547L33.646 25.0891L30.4964 33.3437Z" fill="#A67D1E"/>
<path d="M42.7518 50.1085C41.3312 50.957 39.8365 51.5982 38.2507 52.0322C36.6722 52.4584 35.0173 52.6773 33.2859 52.6773C31.298 52.6773 29.3841 52.375 27.5566 51.7803C25.7241 51.1817 24.042 50.3119 22.5178 49.1709C20.4042 47.5649 18.7764 45.6219 17.6443 43.3437C16.5221 41.0635 15.9524 38.5781 15.9524 35.8911C15.9524 33.6691 16.4037 31.5614 17.3089 29.568C18.2165 27.5746 19.536 25.7594 21.2846 24.1224C22.9371 22.6017 24.7745 21.451 26.7871 20.6722C28.807 19.8915 30.9749 19.4983 33.2958 19.4983C35.6857 19.4983 37.8931 19.8915 39.9229 20.6722C41.9551 21.4587 43.8197 22.623 45.4993 24.1709C47.2455 25.7981 48.56 27.6269 49.4405 29.6571C50.321 31.6893 50.76 33.9074 50.76 36.3057C50.76 38.3998 50.4073 40.3313 49.702 42.098C48.9966 43.8687 47.9262 45.5211 46.4883 47.0554C47.095 47.3208 47.7215 47.5184 48.3627 47.6501C49.0064 47.7819 49.6945 47.8477 50.432 47.8477H51.0313V52.3286H50.6194C49.3517 52.3286 48.0643 52.1426 46.7571 51.7726C45.445 51.4084 44.1083 50.8485 42.7518 50.1085ZM42.0933 44.5312C43.324 43.2294 44.2192 41.8985 44.7766 40.5347C45.339 39.1689 45.6201 37.6153 45.6201 35.8756C45.6201 34.3995 45.334 32.9911 44.7692 31.637C44.202 30.2848 43.3733 29.0624 42.2807 27.9659C41.0056 26.6641 39.6392 25.7071 38.1668 25.0852C36.6993 24.4634 35.0642 24.1534 33.2637 24.1534C31.6581 24.1534 30.1388 24.4382 28.6936 25.0039C27.2483 25.5734 25.9682 26.3967 24.8485 27.4777C23.6351 28.6304 22.7102 29.9496 22.0615 31.4432C21.4178 32.9388 21.0997 34.4944 21.0997 36.1081C21.0997 36.606 21.1441 37.129 21.2255 37.6831C21.3142 38.2371 21.4376 38.8202 21.6127 39.4324C22.3575 39.0624 23.1813 38.7931 24.0815 38.6246C24.9842 38.4541 26.02 38.3708 27.2014 38.3708C29.7344 38.3708 32.2772 38.9016 34.8372 39.9593C37.3924 41.019 39.8143 42.5436 42.0933 44.5312ZM38.3666 47.1465C36.6303 45.6374 34.7583 44.4886 32.7581 43.6982C30.7628 42.9039 28.733 42.5087 26.6712 42.5087C26.0743 42.5087 25.507 42.5475 24.957 42.6308C24.3996 42.7121 23.862 42.8322 23.3367 42.993C24.5452 44.6261 26.0398 45.8892 27.8081 46.7764C29.5765 47.6656 31.4904 48.1112 33.5498 48.1112C34.2848 48.1112 35.0617 48.0318 35.8485 47.8749C36.6402 47.7199 37.4787 47.4758 38.3666 47.1465Z" fill="white" stroke="white" stroke-width="21.0629" stroke-linecap="round" stroke-linejoin="round"/>
<path d="M42.7518 50.1085C41.3312 50.957 39.8365 51.5982 38.2507 52.0322C36.6722 52.4584 35.0173 52.6773 33.2859 52.6773C31.298 52.6773 29.3841 52.375 27.5566 51.7803C25.7241 51.1817 24.042 50.3119 22.5178 49.1709C20.4042 47.5649 18.7764 45.6219 17.6443 43.3437C16.5221 41.0635 15.9524 38.5781 15.9524 35.8911C15.9524 33.6691 16.4037 31.5614 17.3089 29.568C18.2165 27.5746 19.536 25.7594 21.2846 24.1224C22.9371 22.6017 24.7745 21.451 26.7871 20.6722C28.807 19.8915 30.9749 19.4983 33.2958 19.4983C35.6857 19.4983 37.8931 19.8915 39.9229 20.6722C41.9551 21.4587 43.8197 22.623 45.4993 24.1709C47.2455 25.7981 48.56 27.6269 49.4405 29.6571C50.321 31.6893 50.76 33.9074 50.76 36.3057C50.76 38.3998 50.4073 40.3313 49.702 42.098C48.9966 43.8687 47.9262 45.5211 46.4883 47.0554C47.095 47.3208 47.7215 47.5184 48.3627 47.6501C49.0064 47.7819 49.6945 47.8477 50.432 47.8477H51.0313V52.3286H50.6194C49.3517 52.3286 48.0643 52.1426 46.7571 51.7726C45.445 51.4084 44.1083 50.8485 42.7518 50.1085ZM42.0933 44.5312C43.324 43.2294 44.2192 41.8985 44.7766 40.5347C45.339 39.1689 45.6201 37.6153 45.6201 35.8756C45.6201 34.3995 45.334 32.9911 44.7692 31.637C44.202 30.2848 43.3733 29.0624 42.2807 27.9659C41.0056 26.6641 39.6392 25.7071 38.1668 25.0852C36.6993 24.4634 35.0642 24.1534 33.2637 24.1534C31.6581 24.1534 30.1388 24.4382 28.6936 25.0039C27.2483 25.5734 25.9682 26.3967 24.8485 27.4777C23.6351 28.6304 22.7102 29.9496 22.0615 31.4432C21.4178 32.9388 21.0997 34.4944 21.0997 36.1081C21.0997 36.606 21.1441 37.129 21.2255 37.6831C21.3142 38.2371 21.4376 38.8202 21.6127 39.4324C22.3575 39.0624 23.1813 38.7931 24.0815 38.6246C24.9842 38.4541 26.02 38.3708 27.2014 38.3708C29.7344 38.3708 32.2772 38.9016 34.8372 39.9593C37.3924 41.019 39.8143 42.5436 42.0933 44.5312ZM38.3666 47.1465C36.6303 45.6374 34.7583 44.4886 32.7581 43.6982C30.7628 42.9039 28.733 42.5087 26.6712 42.5087C26.0743 42.5087 25.507 42.5475 24.957 42.6308C24.3996 42.7121 23.862 42.8322 23.3367 42.993C24.5452 44.6261 26.0398 45.8892 27.8081 46.7764C29.5765 47.6656 31.4904 48.1112 33.5498 48.1112C34.2848 48.1112 35.0617 48.0318 35.8485 47.8749C36.6402 47.7199 37.4787 47.4758 38.3666 47.1465Z" fill="#E11330"/>
<path d="M57.175 15.6102C57.1848 19.7288 57.2194 39.0314 57.2194 39.0314C56.7335 52.5475 45.8199 60.1046 35.3009 60.6257L34.5758 60.6683L34.2305 60.6373L34.2872 60.6412L33.9937 60.6219C23.5093 60.1046 12.5907 52.5455 12.1098 39.105C12.1098 39.105 12.1468 19.7327 12.1542 15.6102C8.70622 15.6102 3.49729 15.6102 0.0493272 15.6102C0.0419282 19.7482 0 39.8799 0 39.8799C0.818829 59.7423 18.3891 69.4227 34.3711 69.9729L34.1812 70C34.3069 69.9961 34.709 69.9806 34.709 69.9806L34.778 69.9864L35.0271 69.9961C50.945 69.4227 68.5153 59.7423 69.3341 39.7927C69.3341 39.7927 69.2897 19.7462 69.2847 15.6102C65.8343 15.6102 60.6254 15.6102 57.175 15.6102Z" fill="#2A317A"/>
<path d="M3.86717 20.2964L3.85977 22.5048L5.77366 22.5068L6.39271 23.3437L3.85237 25.7671L3.84497 28.3572L7.22141 24.938L9.70256 28.2022L9.70996 25.4494L7.7714 23.2255L7.12522 22.5378V22.5087L9.71489 22.5107L9.71982 20.3022L3.86717 20.2964Z" fill="white"/>
<path d="M3.84751 29.2077L3.84258 31.4297L6.36812 31.4316L6.64929 31.5052C6.89346 31.668 7.11789 32.0322 7.11789 32.6191C7.11789 33.4522 6.73808 33.7737 6.17575 33.7737L3.83765 33.7718V35.9938L6.3114 35.9996C7.6013 35.9996 8.18829 34.9167 8.18829 33.5006C8.18829 33.0899 8.12663 32.6811 8.02551 32.3421C7.92192 31.9915 7.77641 31.699 7.58157 31.4645V31.4374H10.0233V29.2135L3.84751 29.2077Z" fill="white"/>
<path d="M8.67428 44.2309L8.35612 42.1387L5.83551 42.3227L5.53462 42.2549C5.31018 42.1368 5.00188 41.7784 4.91063 41.1507C4.76265 40.339 5.17946 39.9516 5.79112 39.9787H8.07989V37.7567L5.58641 37.7509C4.27185 37.7509 3.73418 38.8028 3.72925 40.2654C3.89203 41.7319 4.45929 42.3266 4.75525 42.6172L4.76265 42.6618L4.18059 42.8167L4.48642 44.8392C4.83171 44.7617 5.27565 44.6745 5.82565 44.6009L8.67428 44.2309Z" fill="white"/>
<path d="M4.79224 46.6389L5.68752 48.8919L11.5821 47.4409L10.8249 45.5754L4.79224 46.6389Z" fill="white"/>
<path d="M6.41016 50.7013C6.66172 51.4684 7.04894 52.191 7.58661 52.869L9.79646 52.0147L10.1393 51.9644C10.45 52.0147 10.8965 52.2356 11.2541 52.7489C11.7202 53.425 11.5895 53.8512 11.1283 54.0817L9.11574 55.0639C9.60408 55.7613 10.053 56.4704 10.7608 57.0438L12.7659 55.8427C13.7303 55.2499 13.3603 54.2038 12.6352 52.9775C11.9668 52.007 11.1924 51.573 10.7657 51.4239L10.7411 51.3871L11.2146 51.1023C10.783 50.6005 10.5906 50.0136 10.3637 49.4343C10.0209 49.5699 9.61395 49.7249 9.11821 49.8741L6.41016 50.7013Z" fill="white"/>
<path d="M19.6742 61.1062C20.2168 60.4378 20.0022 59.444 17.854 58.0899C16.5789 57.4235 15.9031 56.666 15.3285 56.4529L15.0226 57.1988C15.548 57.4235 16.13 58.0105 16.8724 58.3979C17.9033 59.0469 17.891 59.3704 17.7504 59.5099L17.7159 59.5428C15.1534 58.1422 13.8092 56.8578 12.835 57.5029C12.3072 57.8439 12.5834 58.8745 13.8709 60.0639C14.7464 60.6548 15.6639 61.0267 16.3594 61.1294L16.4038 61.1585L16.278 61.5091L18.3991 62.8419C18.4361 62.6288 18.6235 62.3518 18.8504 62.0864L19.6742 61.1062ZM16.9711 60.3797L16.7836 60.4921C16.4704 60.5657 15.8439 60.3913 15.2915 60.0387C14.7637 59.7249 14.5146 59.3607 14.7711 59.1515C15.0769 58.9093 16.1226 59.3588 17.2646 60.0949L16.9711 60.3797Z" fill="white"/>
<path d="M26.1756 60.8543L24.9498 63.2662C24.2247 64.6222 25.7761 65.7361 29.0193 66.5169C32.3588 66.9004 34.9583 66.4142 34.2973 64.969L34.1321 62.3557C34.576 62.2627 32.8792 62.1736 32.3464 62.0903L31.9025 64.7443C31.7693 65.5676 30.8715 65.8659 29.3449 65.7013C27.9193 65.3952 27.2583 64.7637 27.5444 64.0004L28.5088 61.4316L26.1756 60.8543Z" fill="white"/>
<path d="M36.8252 66.8346L39.7997 66.513L39.3113 64.6009L39.331 64.3336C39.484 64.1418 39.8613 63.8745 40.5618 63.6749C41.4866 63.4386 41.9676 63.6284 42.1279 64.043L42.8283 65.8349L45.6893 65.1046L44.7126 63.2565C44.212 62.344 42.7741 62.2162 41.166 62.623C39.8564 62.9969 39.1288 63.4676 38.823 63.6807L38.7736 63.6885L38.5418 63.2371L36.3147 63.4715C36.3838 63.7737 36.4725 64.1186 36.5243 64.5389L36.8252 66.8346Z" fill="white"/>
<path d="M46.7524 60.3332C47.5416 60.0039 47.8573 59.5951 47.6378 59.3336C47.4084 59.074 46.7894 59.0527 46.0618 59.3549C45.3367 59.659 44.9988 60.0755 45.1739 60.3603C45.349 60.6393 45.973 60.6548 46.7302 60.3409L46.7524 60.3332ZM50.4642 63.0899L48.173 60.2363L45.8842 61.1991L47.8228 64.2115L50.4642 63.0899Z" fill="white"/>
<path d="M49.1323 59.6745C50.733 60.0949 52.4767 60.4417 54.3289 60.7013C55.1601 60.2422 55.8161 59.6435 56.4475 59.0217C56.1861 57.53 55.8112 56.1294 55.3401 54.8392L53.5693 56.4955L54.2895 58.2468L54.6964 59.1341L54.657 59.1689C54.3265 59.0682 54.0009 58.9713 53.5742 58.8667L51.3249 58.2856L49.1323 59.6745Z" fill="white"/>
<path d="M61.5135 49.7075C61.4247 49.6494 61.2569 49.5544 61.0374 49.4944C59.9054 49.1689 59.0372 49.845 57.5969 51.6486C56.2108 53.6226 56.5857 55.1375 57.3601 55.6005C58.5341 56.2902 60.0854 55.3448 61.6935 53.0511C62.3939 52.1619 62.7368 51.2456 62.8132 50.4417L61.8563 50.4785C61.7675 51.1139 61.5504 51.7299 61.0202 52.408C60.3641 53.3611 59.5576 54.0837 59.0397 53.919C59.9646 52.5513 61.0695 51.2398 61.5135 49.7075ZM58.2505 53.5703C57.9816 53.3785 57.7646 52.8497 58.3146 52.0573C58.9016 51.2185 59.5404 51.1991 59.8265 51.2999L58.2505 53.5703Z" fill="white"/>
<path d="M63.6836 48.7447L64.569 46.4878L62.4702 46.1255L62.1939 46.0326C61.8067 45.8156 61.6365 45.2383 61.7574 44.446L61.8807 43.8512L60.65 43.7098C60.613 43.859 60.5859 43.9558 60.5612 44.1476C60.4379 44.8005 60.6574 45.6645 61.1063 46.1062L61.0865 46.1623L60.2801 46.0984L59.6018 47.8012C59.9644 47.8477 60.3639 47.9252 60.9583 48.0725L63.6836 48.7447Z" fill="white"/>
<path d="M64.8403 43.4115C65.0968 42.8671 65.3607 42.0012 65.5037 41.017C65.6912 38.7873 64.9661 37.8826 64.2113 37.8419C63.5923 37.8555 63.1779 38.4115 62.9116 39.7733C62.7587 40.6277 62.4972 40.8969 62.3295 40.8853C62.1051 40.8873 62.0681 40.5502 62.0779 40.0833C62.073 39.4808 62.2161 38.8532 62.3098 38.5277L61.4046 38.1499C61.2715 38.5897 61.1531 39.322 61.158 40.155C60.9434 41.7067 61.3454 42.9078 62.1519 42.9698C62.6403 43.0318 63.2075 42.5203 63.7205 41.0325C64.0264 40.217 64.0806 39.9593 64.3199 39.9768C64.5344 39.9438 64.7021 40.2906 64.569 40.9783C64.4752 41.6544 64.1768 42.5126 63.9696 42.9136L64.8403 43.4115Z" fill="white"/>
<path d="M60.6795 35.372C60.6795 34.599 60.3687 34.1147 59.9741 34.1147C59.5746 34.1302 59.2737 34.599 59.2737 35.3584C59.2737 36.1197 59.5795 36.6176 59.9791 36.6157C60.3663 36.6157 60.6844 36.1313 60.6795 35.3894V35.372ZM65.4889 34.2561L61.2394 34.2619V36.4839L65.4963 36.4781L65.4889 34.2561Z" fill="white"/>
<path d="M60.4331 32.1697H61.2346V33.1209L62.2138 33.1189L62.2089 32.1678L63.96 32.1658C64.5544 32.1658 64.9638 31.9605 65.2153 31.5498C65.4348 31.1837 65.5779 30.5831 65.5779 29.8683C65.5779 29.2522 65.5212 28.7098 65.4644 28.4328L64.4582 28.4463C64.4853 28.6536 64.4952 28.7989 64.4952 29.105C64.4952 29.7675 64.2658 29.9845 63.7503 29.9845L62.199 29.9864V28.3921H61.2223V29.9884H60.073L60.4331 32.1697Z" fill="white"/>
<path d="M61.2248 27.8225L65.1068 25.184L65.3214 25.093L65.5138 25.2112C65.7185 25.4146 65.938 25.7962 66.0465 26.1313L66.2783 27.0961L67.3907 26.6273C67.3537 26.0558 67.2032 25.2363 66.8037 24.475C66.3721 23.673 65.7037 22.9814 64.0093 21.9605L61.2075 20.2964L61.2149 22.6831L63.3015 23.5587L64.0981 23.8803V23.9248L63.3015 24.2774L61.2199 25.3487L61.2248 27.8225Z" fill="white"/>
<path d="M0.0961914 0.234405H5.92911V13.4367H0.0961914V0.234405Z" fill="#2A317A"/>
<path d="M26.8266 11.5169C27.5443 11.8694 28.0203 12.0941 28.2472 12.1833C28.5777 12.315 29.0216 12.468 29.584 12.6424L27.9759 14.9399C27.1645 14.661 26.3654 14.3317 25.5688 13.9481C24.7746 13.5645 24.2246 13.2759 23.9064 13.0821C22.619 13.4754 21.0109 13.6691 19.0724 13.6691C16.204 13.6691 13.9399 13.1461 12.2874 12.1C10.3316 10.8621 9.35742 9.12437 9.35742 6.87912C9.35742 4.70166 10.2058 3.0124 11.92 1.80744C13.6267 0.602479 16.0141 0 19.0847 0C22.2096 0 24.6266 0.588919 26.3259 1.76676C28.0203 2.94459 28.8761 4.63192 28.8761 6.82487C28.8737 8.78148 28.188 10.3448 26.8266 11.5169ZM22.3724 9.42658C22.841 8.84347 23.0728 7.97172 23.0728 6.80938C23.0728 5.47462 22.7176 4.5215 22.0123 3.95196C21.2995 3.38047 20.3179 3.09376 19.0674 3.09376C17.9033 3.09376 16.9587 3.38435 16.2336 3.96939C15.5159 4.5525 15.1533 5.46493 15.1533 6.70089C15.1533 8.14413 15.5036 9.1573 16.2089 9.74041C16.9143 10.3255 17.8861 10.6141 19.1168 10.6141C19.5089 10.6141 19.8863 10.5889 20.239 10.5366C19.7408 10.2015 18.9737 9.89151 17.9107 9.59512L18.8233 8.12476C19.3437 8.19256 19.7506 8.27392 20.0392 8.37079C20.3253 8.46765 20.8876 8.71949 21.7336 9.12824C21.9284 9.22511 22.143 9.3239 22.3724 9.42658Z" fill="#E11330"/>
<path d="M43.9576 11.2515H37.4045L36.4673 13.4347H30.5283L37.5624 0.232467H43.9576L50.9793 13.4347H44.8973L43.9576 11.2515ZM42.7318 8.39016L40.6897 3.65168L38.6451 8.39016H42.7318Z" fill="#2A317A"/>
<path d="M64.9094 8.03177L70 9.10887C69.6547 10.1124 69.1195 10.9531 68.387 11.6253C67.6471 12.3014 66.737 12.809 65.6419 13.1538C64.5567 13.4967 63.1682 13.6672 61.4861 13.6672C59.4415 13.6672 57.7669 13.458 56.477 13.0415C55.1772 12.623 54.0575 11.8907 53.1227 10.8388C52.183 9.78884 51.707 8.44246 51.707 6.80163C51.707 4.61836 52.5333 2.93685 54.1882 1.76094C55.8456 0.586981 58.1837 0 61.2099 0C63.5751 0 65.4397 0.337078 66.7888 1.0093C68.1453 1.68346 69.1515 2.716 69.8076 4.11081L64.685 4.9167C64.5123 4.51182 64.3249 4.21542 64.1251 4.02945C63.7996 3.71561 63.4 3.47346 62.9289 3.30492C62.4628 3.13444 61.9375 3.05308 61.3529 3.05308C60.0408 3.05308 59.0346 3.42309 58.3341 4.16699C57.8014 4.7191 57.5375 5.58504 57.5375 6.76869C57.5375 8.2313 57.8507 9.23673 58.4895 9.78109C59.1234 10.3235 60.0088 10.5967 61.1532 10.5967C62.2655 10.5967 63.109 10.3778 63.6713 9.93801C64.2386 9.50213 64.6529 8.86478 64.9094 8.03177Z" fill="#2A317A"/>
<path d="M84.872 30H82.052V12.72H84.872V30ZM90.7106 19.38C90.9746 19.108 91.2466 18.864 91.5266 18.648C91.8146 18.424 92.1186 18.232 92.4386 18.072C92.7586 17.912 93.0986 17.788 93.4586 17.7C93.8186 17.612 94.2106 17.568 94.6346 17.568C95.3066 17.568 95.8946 17.68 96.3986 17.904C96.9106 18.128 97.3386 18.444 97.6826 18.852C98.0346 19.26 98.2986 19.752 98.4746 20.328C98.6506 20.896 98.7386 21.524 98.7386 22.212V30H96.1706V22.212C96.1706 21.388 95.9786 20.748 95.5946 20.292C95.2186 19.836 94.6426 19.608 93.8666 19.608C93.2906 19.608 92.7546 19.74 92.2586 20.004C91.7706 20.268 91.3106 20.628 90.8786 21.084V30H88.2986V17.76H89.8586C90.2106 17.76 90.4346 17.924 90.5306 18.252L90.7106 19.38ZM109.06 19.98C108.996 20.092 108.924 20.172 108.844 20.22C108.764 20.268 108.664 20.292 108.544 20.292C108.408 20.292 108.26 20.252 108.1 20.172C107.94 20.084 107.752 19.988 107.536 19.884C107.32 19.78 107.064 19.688 106.768 19.608C106.48 19.52 106.14 19.476 105.748 19.476C105.428 19.476 105.136 19.516 104.872 19.596C104.616 19.668 104.396 19.776 104.212 19.92C104.036 20.056 103.9 20.22 103.804 20.412C103.708 20.596 103.66 20.796 103.66 21.012C103.66 21.3 103.748 21.54 103.924 21.732C104.1 21.924 104.332 22.092 104.62 22.236C104.908 22.372 105.236 22.496 105.604 22.608C105.972 22.72 106.348 22.84 106.732 22.968C107.116 23.096 107.492 23.244 107.86 23.412C108.228 23.58 108.556 23.788 108.844 24.036C109.132 24.276 109.364 24.572 109.54 24.924C109.716 25.268 109.804 25.688 109.804 26.184C109.804 26.76 109.7 27.292 109.492 27.78C109.284 28.268 108.98 28.692 108.58 29.052C108.18 29.412 107.68 29.692 107.08 29.892C106.488 30.092 105.808 30.192 105.04 30.192C104.616 30.192 104.204 30.152 103.804 30.072C103.412 30 103.036 29.9 102.676 29.772C102.324 29.636 101.992 29.476 101.68 29.292C101.376 29.108 101.104 28.908 100.864 28.692L101.464 27.708C101.536 27.588 101.624 27.496 101.728 27.432C101.84 27.36 101.976 27.324 102.136 27.324C102.304 27.324 102.468 27.38 102.628 27.492C102.796 27.596 102.988 27.712 103.204 27.84C103.428 27.968 103.696 28.088 104.008 28.2C104.32 28.304 104.708 28.356 105.172 28.356C105.556 28.356 105.888 28.312 106.168 28.224C106.448 28.128 106.68 28 106.864 27.84C107.048 27.68 107.184 27.5 107.272 27.3C107.36 27.092 107.404 26.872 107.404 26.64C107.404 26.328 107.316 26.072 107.14 25.872C106.964 25.672 106.728 25.5 106.432 25.356C106.144 25.212 105.812 25.084 105.436 24.972C105.068 24.86 104.692 24.74 104.308 24.612C103.924 24.484 103.544 24.336 103.168 24.168C102.8 24 102.468 23.788 102.172 23.532C101.884 23.268 101.652 22.952 101.476 22.584C101.3 22.208 101.212 21.752 101.212 21.216C101.212 20.728 101.308 20.264 101.5 19.824C101.7 19.384 101.988 18.996 102.364 18.66C102.748 18.324 103.216 18.06 103.768 17.868C104.328 17.668 104.972 17.568 105.7 17.568C106.524 17.568 107.272 17.7 107.944 17.964C108.616 18.228 109.18 18.588 109.636 19.044L109.06 19.98ZM124.108 30H121.528V19.788H115.564V26.736C115.564 27.176 115.672 27.512 115.888 27.744C116.104 27.976 116.392 28.092 116.752 28.092C116.952 28.092 117.124 28.068 117.268 28.02C117.412 27.964 117.536 27.908 117.64 27.852C117.744 27.788 117.832 27.732 117.904 27.684C117.984 27.628 118.06 27.6 118.132 27.6C118.276 27.6 118.392 27.68 118.48 27.84L119.248 29.1C118.848 29.452 118.376 29.724 117.832 29.916C117.288 30.1 116.728 30.192 116.152 30.192C115.136 30.192 114.352 29.908 113.8 29.34C113.256 28.764 112.984 27.956 112.984 26.916V19.788H111.64C111.496 19.788 111.372 19.744 111.268 19.656C111.164 19.56 111.112 19.42 111.112 19.236V18.192L113.092 17.904L113.656 14.364C113.696 14.228 113.764 14.12 113.86 14.04C113.956 13.952 114.084 13.908 114.244 13.908H115.564V17.928H124.108V30ZM124.636 14.004C124.636 14.236 124.588 14.456 124.492 14.664C124.404 14.864 124.28 15.044 124.12 15.204C123.96 15.356 123.772 15.48 123.556 15.576C123.348 15.664 123.128 15.708 122.896 15.708C122.664 15.708 122.444 15.664 122.236 15.576C122.036 15.48 121.856 15.356 121.696 15.204C121.544 15.044 121.42 14.864 121.324 14.664C121.236 14.456 121.192 14.236 121.192 14.004C121.192 13.764 121.236 13.54 121.324 13.332C121.42 13.116 121.544 12.932 121.696 12.78C121.856 12.62 122.036 12.496 122.236 12.408C122.444 12.312 122.664 12.264 122.896 12.264C123.128 12.264 123.348 12.312 123.556 12.408C123.772 12.496 123.96 12.62 124.12 12.78C124.28 12.932 124.404 13.116 124.492 13.332C124.588 13.54 124.636 13.764 124.636 14.004ZM131.293 30.192C130.277 30.192 129.493 29.908 128.941 29.34C128.397 28.764 128.125 27.956 128.125 26.916V19.788H126.781C126.637 19.788 126.513 19.744 126.409 19.656C126.305 19.56 126.253 19.42 126.253 19.236V18.192L128.233 17.904L128.797 14.364C128.837 14.228 128.905 14.12 129.001 14.04C129.097 13.952 129.225 13.908 129.385 13.908H130.705V17.928H134.101V19.788H130.705V26.736C130.705 27.176 130.813 27.512 131.029 27.744C131.245 27.976 131.533 28.092 131.893 28.092C132.093 28.092 132.265 28.068 132.409 28.02C132.553 27.964 132.677 27.908 132.781 27.852C132.885 27.788 132.973 27.732 133.045 27.684C133.125 27.628 133.201 27.6 133.273 27.6C133.417 27.6 133.533 27.68 133.621 27.84L134.389 29.1C133.989 29.452 133.517 29.724 132.973 29.916C132.429 30.1 131.869 30.192 131.293 30.192ZM146.455 17.76V30H144.895C144.551 30 144.331 29.836 144.235 29.508L144.043 28.368C143.787 28.64 143.515 28.888 143.227 29.112C142.947 29.336 142.647 29.528 142.327 29.688C142.007 29.848 141.663 29.972 141.295 30.06C140.935 30.148 140.547 30.192 140.131 30.192C139.459 30.192 138.867 30.08 138.355 29.856C137.843 29.632 137.411 29.316 137.059 28.908C136.715 28.5 136.455 28.012 136.279 27.444C136.103 26.868 136.015 26.236 136.015 25.548V17.76H138.595V25.548C138.595 26.372 138.783 27.012 139.159 27.468C139.543 27.924 140.123 28.152 140.898 28.152C141.467 28.152 141.995 28.024 142.483 27.768C142.979 27.504 143.443 27.144 143.875 26.688V17.76H146.455ZM161.468 30H158.888V19.788H152.924V26.736C152.924 27.176 153.032 27.512 153.248 27.744C153.464 27.976 153.752 28.092 154.112 28.092C154.312 28.092 154.484 28.068 154.628 28.02C154.772 27.964 154.896 27.908 155 27.852C155.104 27.788 155.192 27.732 155.264 27.684C155.344 27.628 155.42 27.6 155.492 27.6C155.636 27.6 155.752 27.68 155.84 27.84L156.608 29.1C156.208 29.452 155.736 29.724 155.192 29.916C154.648 30.1 154.088 30.192 153.512 30.192C152.496 30.192 151.712 29.908 151.16 29.34C150.616 28.764 150.344 27.956 150.344 26.916V19.788H149C148.856 19.788 148.732 19.744 148.628 19.656C148.524 19.56 148.472 19.42 148.472 19.236V18.192L150.452 17.904L151.016 14.364C151.056 14.228 151.124 14.12 151.22 14.04C151.316 13.952 151.444 13.908 151.604 13.908H152.924V17.928H161.468V30ZM161.996 14.004C161.996 14.236 161.948 14.456 161.852 14.664C161.764 14.864 161.64 15.044 161.48 15.204C161.32 15.356 161.132 15.48 160.916 15.576C160.708 15.664 160.488 15.708 160.256 15.708C160.024 15.708 159.804 15.664 159.596 15.576C159.396 15.48 159.216 15.356 159.056 15.204C158.904 15.044 158.78 14.864 158.684 14.664C158.596 14.456 158.552 14.236 158.552 14.004C158.552 13.764 158.596 13.54 158.684 13.332C158.78 13.116 158.904 12.932 159.056 12.78C159.216 12.62 159.396 12.496 159.596 12.408C159.804 12.312 160.024 12.264 160.256 12.264C160.488 12.264 160.708 12.312 160.916 12.408C161.132 12.496 161.32 12.62 161.48 12.78C161.64 12.932 161.764 13.116 161.852 13.332C161.948 13.54 161.996 13.764 161.996 14.004ZM170.02 17.568C170.924 17.568 171.74 17.716 172.468 18.012C173.204 18.308 173.828 18.728 174.34 19.272C174.86 19.816 175.26 20.476 175.54 21.252C175.82 22.028 175.96 22.9 175.96 23.868C175.96 24.836 175.82 25.708 175.54 26.484C175.26 27.26 174.86 27.924 174.34 28.476C173.828 29.02 173.204 29.44 172.468 29.736C171.74 30.032 170.924 30.18 170.02 30.18C169.108 30.18 168.284 30.032 167.548 29.736C166.82 29.44 166.196 29.02 165.676 28.476C165.156 27.924 164.756 27.26 164.476 26.484C164.196 25.708 164.056 24.836 164.056 23.868C164.056 22.9 164.196 22.028 164.476 21.252C164.756 20.476 165.156 19.816 165.676 19.272C166.196 18.728 166.82 18.308 167.548 18.012C168.284 17.716 169.108 17.568 170.02 17.568ZM170.02 28.164C171.124 28.164 171.944 27.796 172.48 27.06C173.024 26.316 173.296 25.256 173.296 23.88C173.296 22.504 173.024 21.444 172.48 20.7C171.944 19.948 171.124 19.572 170.02 19.572C168.9 19.572 168.068 19.948 167.524 20.7C166.98 21.444 166.708 22.504 166.708 23.88C166.708 25.256 166.98 26.316 167.524 27.06C168.068 27.796 168.9 28.164 170.02 28.164ZM180.851 19.38C181.115 19.108 181.387 18.864 181.667 18.648C181.955 18.424 182.259 18.232 182.579 18.072C182.899 17.912 183.239 17.788 183.599 17.7C183.959 17.612 184.351 17.568 184.775 17.568C185.447 17.568 186.035 17.68 186.539 17.904C187.051 18.128 187.479 18.444 187.823 18.852C188.175 19.26 188.439 19.752 188.615 20.328C188.791 20.896 188.879 21.524 188.879 22.212V30H186.311V22.212C186.311 21.388 186.119 20.748 185.735 20.292C185.359 19.836 184.783 19.608 184.007 19.608C183.431 19.608 182.895 19.74 182.399 20.004C181.911 20.268 181.451 20.628 181.019 21.084V30H178.439V17.76H179.999C180.351 17.76 180.575 17.924 180.671 18.252L180.851 19.38ZM198.432 24.648C197.512 24.68 196.736 24.756 196.104 24.876C195.472 24.988 194.96 25.136 194.568 25.32C194.176 25.496 193.892 25.708 193.716 25.956C193.548 26.204 193.464 26.476 193.464 26.772C193.464 27.06 193.508 27.308 193.596 27.516C193.692 27.716 193.82 27.884 193.98 28.02C194.148 28.148 194.34 28.244 194.556 28.308C194.78 28.364 195.024 28.392 195.288 28.392C195.96 28.392 196.536 28.268 197.016 28.02C197.504 27.764 197.976 27.396 198.432 26.916V24.648ZM191.592 19.464C192.976 18.176 194.624 17.532 196.536 17.532C197.24 17.532 197.864 17.648 198.408 17.88C198.96 18.104 199.42 18.424 199.788 18.84C200.164 19.256 200.448 19.752 200.64 20.328C200.84 20.896 200.94 21.528 200.94 22.224V30H199.788C199.54 30 199.352 29.964 199.224 29.892C199.096 29.812 198.988 29.656 198.9 29.424L198.648 28.428C198.336 28.708 198.028 28.96 197.724 29.184C197.42 29.4 197.104 29.584 196.776 29.736C196.456 29.888 196.108 30 195.732 30.072C195.364 30.152 194.956 30.192 194.508 30.192C194.012 30.192 193.548 30.124 193.116 29.988C192.692 29.852 192.324 29.648 192.012 29.376C191.7 29.096 191.452 28.752 191.268 28.344C191.092 27.936 191.004 27.456 191.004 26.904C191.004 26.432 191.128 25.972 191.376 25.524C191.632 25.076 192.048 24.676 192.624 24.324C193.208 23.964 193.972 23.668 194.916 23.436C195.868 23.204 197.04 23.072 198.432 23.04V22.224C198.432 21.344 198.244 20.688 197.868 20.256C197.492 19.824 196.94 19.608 196.212 19.608C195.716 19.608 195.3 19.672 194.964 19.8C194.628 19.92 194.336 20.052 194.088 20.196C193.84 20.34 193.62 20.476 193.428 20.604C193.236 20.724 193.032 20.784 192.816 20.784C192.64 20.784 192.488 20.74 192.36 20.652C192.24 20.556 192.14 20.44 192.06 20.304L191.592 19.464ZM206.591 12.24V30H204.011V12.24H206.591ZM218.056 21.36C218.056 22.36 218.192 23.256 218.464 24.048C218.736 24.84 219.124 25.512 219.628 26.064C220.132 26.608 220.74 27.028 221.452 27.324C222.164 27.612 222.96 27.756 223.84 27.756C224.728 27.756 225.528 27.612 226.24 27.324C226.952 27.028 227.556 26.608 228.052 26.064C228.556 25.512 228.94 24.84 229.204 24.048C229.476 23.256 229.612 22.36 229.612 21.36C229.612 20.368 229.476 19.476 229.204 18.684C228.94 17.892 228.556 17.22 228.052 16.668C227.556 16.116 226.952 15.692 226.24 15.396C225.528 15.1 224.728 14.952 223.84 14.952C222.96 14.952 222.164 15.1 221.452 15.396C220.74 15.692 220.132 16.116 219.628 16.668C219.124 17.22 218.736 17.892 218.464 18.684C218.192 19.476 218.056 20.368 218.056 21.36ZM233.332 33.456H231.028C230.684 33.456 230.38 33.408 230.116 33.312C229.852 33.224 229.608 33.06 229.384 32.82L226.624 29.784C225.76 30.048 224.832 30.18 223.84 30.18C222.552 30.18 221.376 29.96 220.312 29.52C219.256 29.08 218.348 28.472 217.588 27.696C216.828 26.912 216.24 25.98 215.824 24.9C215.408 23.82 215.2 22.64 215.2 21.36C215.2 20.08 215.408 18.9 215.824 17.82C216.24 16.74 216.828 15.808 217.588 15.024C218.348 14.24 219.256 13.628 220.312 13.188C221.376 12.748 222.552 12.528 223.84 12.528C225.136 12.528 226.312 12.748 227.368 13.188C228.432 13.628 229.34 14.24 230.092 15.024C230.852 15.808 231.44 16.74 231.856 17.82C232.272 18.9 232.48 20.08 232.48 21.36C232.48 22.152 232.4 22.908 232.24 23.628C232.08 24.34 231.848 25.008 231.544 25.632C231.24 26.248 230.868 26.816 230.428 27.336C229.988 27.848 229.488 28.296 228.928 28.68L233.332 33.456ZM245.22 17.76V30H243.66C243.316 30 243.096 29.836 243 29.508L242.808 28.368C242.552 28.64 242.28 28.888 241.992 29.112C241.712 29.336 241.412 29.528 241.092 29.688C240.772 29.848 240.428 29.972 240.06 30.06C239.7 30.148 239.312 30.192 238.896 30.192C238.224 30.192 237.632 30.08 237.12 29.856C236.608 29.632 236.176 29.316 235.824 28.908C235.48 28.5 235.22 28.012 235.044 27.444C234.868 26.868 234.78 26.236 234.78 25.548V17.76H237.36V25.548C237.36 26.372 237.548 27.012 237.924 27.468C238.308 27.924 238.888 28.152 239.664 28.152C240.232 28.152 240.76 28.024 241.248 27.768C241.744 27.504 242.208 27.144 242.64 26.688V17.76H245.22ZM254.893 24.648C253.973 24.68 253.197 24.756 252.565 24.876C251.933 24.988 251.421 25.136 251.029 25.32C250.637 25.496 250.353 25.708 250.177 25.956C250.009 26.204 249.925 26.476 249.925 26.772C249.925 27.06 249.969 27.308 250.057 27.516C250.153 27.716 250.281 27.884 250.441 28.02C250.609 28.148 250.801 28.244 251.017 28.308C251.241 28.364 251.485 28.392 251.749 28.392C252.421 28.392 252.997 28.268 253.477 28.02C253.965 27.764 254.437 27.396 254.893 26.916V24.648ZM248.053 19.464C249.437 18.176 251.085 17.532 252.997 17.532C253.701 17.532 254.325 17.648 254.869 17.88C255.421 18.104 255.881 18.424 256.249 18.84C256.625 19.256 256.909 19.752 257.101 20.328C257.301 20.896 257.401 21.528 257.401 22.224V30H256.249C256.001 30 255.813 29.964 255.685 29.892C255.557 29.812 255.449 29.656 255.361 29.424L255.109 28.428C254.797 28.708 254.489 28.96 254.185 29.184C253.881 29.4 253.565 29.584 253.237 29.736C252.917 29.888 252.569 30 252.193 30.072C251.825 30.152 251.417 30.192 250.969 30.192C250.473 30.192 250.009 30.124 249.577 29.988C249.153 29.852 248.785 29.648 248.473 29.376C248.161 29.096 247.913 28.752 247.729 28.344C247.553 27.936 247.465 27.456 247.465 26.904C247.465 26.432 247.589 25.972 247.837 25.524C248.093 25.076 248.509 24.676 249.085 24.324C249.669 23.964 250.433 23.668 251.377 23.436C252.329 23.204 253.501 23.072 254.893 23.04V22.224C254.893 21.344 254.705 20.688 254.329 20.256C253.953 19.824 253.401 19.608 252.673 19.608C252.177 19.608 251.761 19.672 251.425 19.8C251.089 19.92 250.797 20.052 250.549 20.196C250.301 20.34 250.081 20.476 249.889 20.604C249.697 20.724 249.493 20.784 249.277 20.784C249.101 20.784 248.949 20.74 248.821 20.652C248.701 20.556 248.601 20.44 248.521 20.304L248.053 19.464ZM263.052 12.24V30H260.472V12.24H263.052ZM268.924 17.76V30H266.344V17.76H268.924ZM269.356 14.064C269.356 14.296 269.308 14.516 269.212 14.724C269.124 14.932 269 15.116 268.84 15.276C268.68 15.428 268.492 15.552 268.276 15.648C268.068 15.736 267.844 15.78 267.604 15.78C267.372 15.78 267.152 15.736 266.944 15.648C266.744 15.552 266.568 15.428 266.416 15.276C266.264 15.116 266.14 14.932 266.044 14.724C265.956 14.516 265.912 14.296 265.912 14.064C265.912 13.824 265.956 13.6 266.044 13.392C266.14 13.184 266.264 13.004 266.416 12.852C266.568 12.692 266.744 12.568 266.944 12.48C267.152 12.384 267.372 12.336 267.604 12.336C267.844 12.336 268.068 12.384 268.276 12.48C268.492 12.568 268.68 12.692 268.84 12.852C269 13.004 269.124 13.184 269.212 13.392C269.308 13.6 269.356 13.824 269.356 14.064ZM276.09 30.192C275.074 30.192 274.29 29.908 273.738 29.34C273.194 28.764 272.922 27.956 272.922 26.916V19.788H271.578C271.434 19.788 271.31 19.744 271.206 19.656C271.102 19.56 271.05 19.42 271.05 19.236V18.192L273.03 17.904L273.594 14.364C273.634 14.228 273.702 14.12 273.798 14.04C273.894 13.952 274.022 13.908 274.182 13.908H275.502V17.928H278.898V19.788H275.502V26.736C275.502 27.176 275.61 27.512 275.826 27.744C276.042 27.976 276.33 28.092 276.69 28.092C276.89 28.092 277.062 28.068 277.206 28.02C277.35 27.964 277.474 27.908 277.578 27.852C277.682 27.788 277.77 27.732 277.842 27.684C277.922 27.628 277.998 27.6 278.07 27.6C278.214 27.6 278.33 27.68 278.418 27.84L279.186 29.1C278.786 29.452 278.314 29.724 277.77 29.916C277.226 30.1 276.666 30.192 276.09 30.192ZM291.791 17.76L285.047 33.48C284.959 33.664 284.851 33.808 284.723 33.912C284.603 34.016 284.415 34.068 284.159 34.068H282.251L284.507 29.172L279.515 17.76H281.759C281.975 17.76 282.139 17.812 282.251 17.916C282.371 18.012 282.459 18.128 282.515 18.264L285.431 25.212C285.503 25.412 285.567 25.612 285.623 25.812C285.687 26.004 285.747 26.204 285.803 26.412C285.867 26.204 285.931 26 285.995 25.8C286.059 25.6 286.131 25.4 286.211 25.2L289.007 18.264C289.063 18.12 289.155 18 289.283 17.904C289.419 17.808 289.567 17.76 289.727 17.76H291.791ZM91.196 52.52L88.82 46.208C88.628 45.72 88.432 45.1 88.232 44.348C88.144 44.724 88.048 45.072 87.944 45.392C87.84 45.704 87.744 45.98 87.656 46.22L85.28 52.52H91.196ZM96.512 59H94.34C94.092 59 93.892 58.94 93.74 58.82C93.588 58.692 93.472 58.536 93.392 58.352L91.952 54.536H84.512L83.072 58.352C83.008 58.512 82.896 58.66 82.736 58.796C82.576 58.932 82.376 59 82.136 59H79.964L86.816 41.72H89.66L96.512 59ZM105.357 48.98C105.293 49.092 105.221 49.172 105.141 49.22C105.061 49.268 104.961 49.292 104.841 49.292C104.705 49.292 104.557 49.252 104.397 49.172C104.237 49.084 104.049 48.988 103.833 48.884C103.617 48.78 103.361 48.688 103.065 48.608C102.777 48.52 102.437 48.476 102.045 48.476C101.725 48.476 101.433 48.516 101.169 48.596C100.913 48.668 100.693 48.776 100.509 48.92C100.333 49.056 100.197 49.22 100.101 49.412C100.005 49.596 99.9566 49.796 99.9566 50.012C99.9566 50.3 100.045 50.54 100.221 50.732C100.397 50.924 100.629 51.092 100.917 51.236C101.205 51.372 101.533 51.496 101.901 51.608C102.269 51.72 102.645 51.84 103.029 51.968C103.413 52.096 103.789 52.244 104.157 52.412C104.525 52.58 104.853 52.788 105.141 53.036C105.429 53.276 105.661 53.572 105.837 53.924C106.013 54.268 106.101 54.688 106.101 55.184C106.101 55.76 105.997 56.292 105.789 56.78C105.581 57.268 105.277 57.692 104.877 58.052C104.477 58.412 103.977 58.692 103.377 58.892C102.785 59.092 102.105 59.192 101.337 59.192C100.913 59.192 100.501 59.152 100.101 59.072C99.7086 59 99.3326 58.9 98.9726 58.772C98.6206 58.636 98.2886 58.476 97.9766 58.292C97.6726 58.108 97.4006 57.908 97.1606 57.692L97.7606 56.708C97.8326 56.588 97.9206 56.496 98.0246 56.432C98.1366 56.36 98.2726 56.324 98.4326 56.324C98.6006 56.324 98.7646 56.38 98.9246 56.492C99.0926 56.596 99.2846 56.712 99.5006 56.84C99.7246 56.968 99.9926 57.088 100.305 57.2C100.617 57.304 101.005 57.356 101.469 57.356C101.853 57.356 102.185 57.312 102.465 57.224C102.745 57.128 102.977 57 103.161 56.84C103.345 56.68 103.481 56.5 103.569 56.3C103.657 56.092 103.701 55.872 103.701 55.64C103.701 55.328 103.613 55.072 103.437 54.872C103.261 54.672 103.025 54.5 102.729 54.356C102.441 54.212 102.109 54.084 101.733 53.972C101.365 53.86 100.989 53.74 100.605 53.612C100.221 53.484 99.8406 53.336 99.4646 53.168C99.0966 53 98.7646 52.788 98.4686 52.532C98.1806 52.268 97.9486 51.952 97.7726 51.584C97.5966 51.208 97.5086 50.752 97.5086 50.216C97.5086 49.728 97.6046 49.264 97.7966 48.824C97.9966 48.384 98.2846 47.996 98.6606 47.66C99.0446 47.324 99.5126 47.06 100.065 46.868C100.625 46.668 101.269 46.568 101.997 46.568C102.821 46.568 103.569 46.7 104.241 46.964C104.913 47.228 105.477 47.588 105.933 48.044L105.357 48.98ZM115.833 48.98C115.769 49.092 115.697 49.172 115.617 49.22C115.537 49.268 115.437 49.292 115.317 49.292C115.181 49.292 115.033 49.252 114.873 49.172C114.713 49.084 114.525 48.988 114.309 48.884C114.093 48.78 113.837 48.688 113.541 48.608C113.253 48.52 112.913 48.476 112.521 48.476C112.201 48.476 111.909 48.516 111.645 48.596C111.389 48.668 111.169 48.776 110.985 48.92C110.809 49.056 110.673 49.22 110.577 49.412C110.481 49.596 110.433 49.796 110.433 50.012C110.433 50.3 110.521 50.54 110.697 50.732C110.873 50.924 111.105 51.092 111.393 51.236C111.681 51.372 112.009 51.496 112.377 51.608C112.745 51.72 113.121 51.84 113.505 51.968C113.889 52.096 114.265 52.244 114.633 52.412C115.001 52.58 115.329 52.788 115.617 53.036C115.905 53.276 116.137 53.572 116.313 53.924C116.489 54.268 116.577 54.688 116.577 55.184C116.577 55.76 116.473 56.292 116.265 56.78C116.057 57.268 115.753 57.692 115.353 58.052C114.953 58.412 114.453 58.692 113.853 58.892C113.261 59.092 112.581 59.192 111.813 59.192C111.389 59.192 110.977 59.152 110.577 59.072C110.185 59 109.809 58.9 109.449 58.772C109.097 58.636 108.765 58.476 108.453 58.292C108.149 58.108 107.877 57.908 107.637 57.692L108.237 56.708C108.309 56.588 108.397 56.496 108.501 56.432C108.613 56.36 108.749 56.324 108.909 56.324C109.077 56.324 109.241 56.38 109.401 56.492C109.569 56.596 109.761 56.712 109.977 56.84C110.201 56.968 110.469 57.088 110.781 57.2C111.093 57.304 111.481 57.356 111.945 57.356C112.329 57.356 112.661 57.312 112.941 57.224C113.221 57.128 113.453 57 113.637 56.84C113.821 56.68 113.957 56.5 114.045 56.3C114.133 56.092 114.177 55.872 114.177 55.64C114.177 55.328 114.089 55.072 113.913 54.872C113.737 54.672 113.501 54.5 113.205 54.356C112.917 54.212 112.585 54.084 112.209 53.972C111.841 53.86 111.465 53.74 111.081 53.612C110.697 53.484 110.317 53.336 109.941 53.168C109.573 53 109.241 52.788 108.945 52.532C108.657 52.268 108.425 51.952 108.249 51.584C108.073 51.208 107.985 50.752 107.985 50.216C107.985 49.728 108.081 49.264 108.273 48.824C108.473 48.384 108.761 47.996 109.137 47.66C109.521 47.324 109.989 47.06 110.541 46.868C111.101 46.668 111.745 46.568 112.473 46.568C113.297 46.568 114.045 46.7 114.717 46.964C115.389 47.228 115.953 47.588 116.409 48.044L115.833 48.98ZM129.322 46.76V59H127.762C127.418 59 127.198 58.836 127.102 58.508L126.91 57.368C126.654 57.64 126.382 57.888 126.094 58.112C125.814 58.336 125.514 58.528 125.194 58.688C124.874 58.848 124.53 58.972 124.162 59.06C123.802 59.148 123.414 59.192 122.998 59.192C122.326 59.192 121.734 59.08 121.222 58.856C120.71 58.632 120.278 58.316 119.926 57.908C119.582 57.5 119.322 57.012 119.146 56.444C118.97 55.868 118.882 55.236 118.882 54.548V46.76H121.462V54.548C121.462 55.372 121.65 56.012 122.026 56.468C122.41 56.924 122.99 57.152 123.766 57.152C124.334 57.152 124.862 57.024 125.35 56.768C125.846 56.504 126.31 56.144 126.742 55.688V46.76H129.322ZM134.891 49.028C135.275 48.252 135.739 47.644 136.283 47.204C136.827 46.756 137.479 46.532 138.239 46.532C138.503 46.532 138.751 46.564 138.983 46.628C139.215 46.684 139.423 46.772 139.607 46.892L139.427 48.836C139.395 48.972 139.343 49.068 139.271 49.124C139.207 49.172 139.119 49.196 139.007 49.196C138.887 49.196 138.715 49.176 138.491 49.136C138.267 49.088 138.031 49.064 137.783 49.064C137.423 49.064 137.103 49.116 136.823 49.22C136.551 49.324 136.303 49.476 136.079 49.676C135.863 49.876 135.671 50.12 135.503 50.408C135.335 50.696 135.179 51.024 135.035 51.392V59H132.455V46.76H133.955C134.227 46.76 134.415 46.812 134.519 46.916C134.623 47.012 134.695 47.184 134.735 47.432L134.891 49.028ZM147.667 53.648C146.747 53.68 145.971 53.756 145.339 53.876C144.707 53.988 144.195 54.136 143.803 54.32C143.411 54.496 143.127 54.708 142.951 54.956C142.783 55.204 142.699 55.476 142.699 55.772C142.699 56.06 142.743 56.308 142.831 56.516C142.927 56.716 143.055 56.884 143.215 57.02C143.383 57.148 143.575 57.244 143.791 57.308C144.015 57.364 144.259 57.392 144.523 57.392C145.195 57.392 145.771 57.268 146.251 57.02C146.739 56.764 147.211 56.396 147.667 55.916V53.648ZM140.827 48.464C142.211 47.176 143.859 46.532 145.771 46.532C146.475 46.532 147.099 46.648 147.643 46.88C148.195 47.104 148.655 47.424 149.023 47.84C149.399 48.256 149.683 48.752 149.875 49.328C150.075 49.896 150.175 50.528 150.175 51.224V59H149.023C148.775 59 148.587 58.964 148.459 58.892C148.331 58.812 148.223 58.656 148.135 58.424L147.883 57.428C147.571 57.708 147.263 57.96 146.959 58.184C146.655 58.4 146.339 58.584 146.011 58.736C145.691 58.888 145.343 59 144.967 59.072C144.599 59.152 144.191 59.192 143.743 59.192C143.247 59.192 142.783 59.124 142.351 58.988C141.927 58.852 141.559 58.648 141.247 58.376C140.935 58.096 140.687 57.752 140.503 57.344C140.327 56.936 140.239 56.456 140.239 55.904C140.239 55.432 140.363 54.972 140.611 54.524C140.867 54.076 141.283 53.676 141.859 53.324C142.443 52.964 143.207 52.668 144.151 52.436C145.103 52.204 146.275 52.072 147.667 52.04V51.224C147.667 50.344 147.479 49.688 147.103 49.256C146.727 48.824 146.175 48.608 145.447 48.608C144.951 48.608 144.535 48.672 144.199 48.8C143.863 48.92 143.571 49.052 143.323 49.196C143.075 49.34 142.855 49.476 142.663 49.604C142.471 49.724 142.267 49.784 142.051 49.784C141.875 49.784 141.723 49.74 141.595 49.652C141.475 49.556 141.375 49.44 141.295 49.304L140.827 48.464ZM155.609 48.38C155.873 48.108 156.145 47.864 156.425 47.648C156.713 47.424 157.017 47.232 157.337 47.072C157.657 46.912 157.997 46.788 158.357 46.7C158.717 46.612 159.109 46.568 159.533 46.568C160.205 46.568 160.793 46.68 161.297 46.904C161.809 47.128 162.237 47.444 162.581 47.852C162.933 48.26 163.197 48.752 163.373 49.328C163.549 49.896 163.637 50.524 163.637 51.212V59H161.069V51.212C161.069 50.388 160.877 49.748 160.493 49.292C160.117 48.836 159.541 48.608 158.765 48.608C158.189 48.608 157.653 48.74 157.157 49.004C156.669 49.268 156.209 49.628 155.777 50.084V59H153.197V46.76H154.757C155.109 46.76 155.333 46.924 155.429 47.252L155.609 48.38ZM175.302 49.16C175.222 49.264 175.146 49.344 175.074 49.4C175.002 49.456 174.898 49.484 174.762 49.484C174.626 49.484 174.482 49.436 174.33 49.34C174.186 49.244 174.01 49.14 173.802 49.028C173.602 48.908 173.358 48.8 173.07 48.704C172.782 48.608 172.422 48.56 171.99 48.56C171.43 48.56 170.938 48.66 170.514 48.86C170.098 49.06 169.746 49.348 169.458 49.724C169.178 50.092 168.966 50.544 168.822 51.08C168.686 51.608 168.618 52.204 168.618 52.868C168.618 53.556 168.694 54.168 168.846 54.704C168.998 55.24 169.214 55.692 169.494 56.06C169.782 56.428 170.126 56.708 170.526 56.9C170.934 57.092 171.39 57.188 171.894 57.188C172.39 57.188 172.794 57.128 173.106 57.008C173.418 56.888 173.678 56.756 173.886 56.612C174.094 56.468 174.27 56.336 174.414 56.216C174.566 56.096 174.726 56.036 174.894 56.036C175.102 56.036 175.262 56.116 175.374 56.276L176.106 57.224C175.81 57.584 175.482 57.888 175.122 58.136C174.762 58.384 174.382 58.588 173.982 58.748C173.582 58.9 173.166 59.008 172.734 59.072C172.302 59.144 171.866 59.18 171.426 59.18C170.666 59.18 169.954 59.04 169.29 58.76C168.634 58.472 168.058 58.06 167.562 57.524C167.074 56.98 166.686 56.32 166.398 55.544C166.118 54.76 165.978 53.868 165.978 52.868C165.978 51.964 166.106 51.128 166.362 50.36C166.618 49.584 166.99 48.916 167.478 48.356C167.974 47.796 168.586 47.36 169.314 47.048C170.042 46.728 170.882 46.568 171.834 46.568C172.722 46.568 173.502 46.712 174.174 47C174.854 47.288 175.458 47.696 175.986 48.224L175.302 49.16ZM185.998 51.5C185.998 51.068 185.934 50.668 185.806 50.3C185.686 49.924 185.506 49.6 185.266 49.328C185.026 49.048 184.726 48.832 184.366 48.68C184.014 48.52 183.606 48.44 183.142 48.44C182.206 48.44 181.47 48.708 180.934 49.244C180.398 49.78 180.058 50.532 179.914 51.5H185.998ZM179.842 53.084C179.874 53.78 179.982 54.384 180.166 54.896C180.35 55.4 180.594 55.82 180.898 56.156C181.21 56.492 181.578 56.744 182.002 56.912C182.434 57.072 182.914 57.152 183.442 57.152C183.946 57.152 184.382 57.096 184.75 56.984C185.118 56.864 185.438 56.736 185.71 56.6C185.982 56.456 186.214 56.328 186.406 56.216C186.598 56.096 186.774 56.036 186.934 56.036C187.142 56.036 187.302 56.116 187.414 56.276L188.146 57.224C187.842 57.584 187.498 57.888 187.114 58.136C186.73 58.384 186.322 58.588 185.89 58.748C185.458 58.9 185.014 59.008 184.558 59.072C184.102 59.144 183.658 59.18 183.226 59.18C182.378 59.18 181.59 59.04 180.862 58.76C180.142 58.472 179.514 58.052 178.978 57.5C178.45 56.948 178.034 56.264 177.73 55.448C177.434 54.632 177.286 53.692 177.286 52.628C177.286 51.78 177.418 50.988 177.682 50.252C177.954 49.516 178.338 48.876 178.834 48.332C179.338 47.788 179.946 47.36 180.658 47.048C181.378 46.728 182.19 46.568 183.094 46.568C183.846 46.568 184.542 46.692 185.182 46.94C185.822 47.18 186.374 47.536 186.838 48.008C187.302 48.48 187.662 49.06 187.918 49.748C188.182 50.428 188.314 51.204 188.314 52.076C188.314 52.476 188.27 52.744 188.182 52.88C188.094 53.016 187.934 53.084 187.702 53.084H179.842ZM209.177 55.148C209.329 55.148 209.461 55.208 209.573 55.328L210.689 56.54C209.985 57.388 209.121 58.044 208.097 58.508C207.073 58.964 205.849 59.192 204.425 59.192C203.161 59.192 202.017 58.976 200.993 58.544C199.977 58.104 199.109 57.496 198.389 56.72C197.669 55.936 197.113 55.004 196.721 53.924C196.337 52.844 196.145 51.656 196.145 50.36C196.145 49.064 196.349 47.876 196.757 46.796C197.173 45.708 197.753 44.776 198.497 44C199.249 43.216 200.145 42.608 201.185 42.176C202.233 41.744 203.385 41.528 204.641 41.528C205.889 41.528 206.989 41.732 207.941 42.14C208.901 42.54 209.733 43.076 210.437 43.748L209.513 45.056C209.449 45.144 209.373 45.22 209.285 45.284C209.197 45.348 209.077 45.38 208.925 45.38C208.765 45.38 208.581 45.308 208.373 45.164C208.173 45.012 207.913 44.848 207.593 44.672C207.281 44.488 206.885 44.324 206.405 44.18C205.933 44.028 205.341 43.952 204.629 43.952C203.805 43.952 203.049 44.096 202.361 44.384C201.673 44.672 201.081 45.092 200.585 45.644C200.089 46.196 199.701 46.868 199.421 47.66C199.149 48.452 199.013 49.352 199.013 50.36C199.013 51.376 199.157 52.284 199.445 53.084C199.733 53.876 200.129 54.548 200.633 55.1C201.137 55.644 201.729 56.06 202.409 56.348C203.089 56.636 203.821 56.78 204.605 56.78C205.085 56.78 205.513 56.756 205.889 56.708C206.273 56.652 206.625 56.568 206.945 56.456C207.265 56.336 207.565 56.188 207.845 56.012C208.133 55.836 208.417 55.62 208.697 55.364C208.857 55.22 209.017 55.148 209.177 55.148ZM220.405 51.5C220.405 51.068 220.341 50.668 220.213 50.3C220.093 49.924 219.913 49.6 219.673 49.328C219.433 49.048 219.133 48.832 218.773 48.68C218.421 48.52 218.013 48.44 217.549 48.44C216.613 48.44 215.877 48.708 215.341 49.244C214.805 49.78 214.465 50.532 214.321 51.5H220.405ZM214.249 53.084C214.281 53.78 214.389 54.384 214.573 54.896C214.757 55.4 215.001 55.82 215.305 56.156C215.617 56.492 215.985 56.744 216.409 56.912C216.841 57.072 217.321 57.152 217.849 57.152C218.353 57.152 218.789 57.096 219.157 56.984C219.525 56.864 219.845 56.736 220.117 56.6C220.389 56.456 220.621 56.328 220.813 56.216C221.005 56.096 221.181 56.036 221.341 56.036C221.549 56.036 221.709 56.116 221.821 56.276L222.553 57.224C222.249 57.584 221.905 57.888 221.521 58.136C221.137 58.384 220.729 58.588 220.297 58.748C219.865 58.9 219.421 59.008 218.965 59.072C218.509 59.144 218.065 59.18 217.633 59.18C216.785 59.18 215.997 59.04 215.269 58.76C214.549 58.472 213.921 58.052 213.385 57.5C212.857 56.948 212.441 56.264 212.137 55.448C211.841 54.632 211.693 53.692 211.693 52.628C211.693 51.78 211.825 50.988 212.089 50.252C212.361 49.516 212.745 48.876 213.241 48.332C213.745 47.788 214.353 47.36 215.065 47.048C215.785 46.728 216.597 46.568 217.501 46.568C218.253 46.568 218.949 46.692 219.589 46.94C220.229 47.18 220.781 47.536 221.245 48.008C221.709 48.48 222.069 49.06 222.325 49.748C222.589 50.428 222.721 51.204 222.721 52.076C222.721 52.476 222.677 52.744 222.589 52.88C222.501 53.016 222.341 53.084 222.109 53.084H214.249ZM227.755 41.24V59H225.175V41.24H227.755ZM233.567 41.24V59H230.987V41.24H233.567Z" fill="#2A307A"/>
</svg>
