<svg width="100" height="100" viewBox="0 0 100 100" fill="none" xmlns="http://www.w3.org/2000/svg">
<path d="M8.33325 20.8246V67.2653C8.33325 71.8944 12.1084 75.6398 16.7285 75.9288C20.7677 76.1814 25.5136 76.6755 29.1666 77.6394C33.6726 78.8285 39.0538 81.4023 43.2183 83.6223C47.4383 85.8717 52.5616 85.8717 56.7815 83.6223C60.946 81.4023 66.3272 78.8285 70.8332 77.6394C74.4862 76.6755 79.2321 76.1814 83.2713 75.9288C87.8914 75.6398 91.6666 71.8944 91.6666 67.2653V20.5554C91.6666 16.0868 88.1406 12.4188 83.6748 12.5744C78.9724 12.7382 73.112 13.2255 68.7499 14.5314C64.9681 15.6636 60.5637 17.9345 56.9742 20.0119C52.648 22.5157 47.2615 22.6514 42.8426 20.3148C38.7337 18.1421 33.5383 15.685 29.1666 14.5314C25.4728 13.5567 20.6615 13.0625 16.5933 12.8124C12.0262 12.5317 8.33325 16.2489 8.33325 20.8246Z" fill="#0C0B39"/>
<path d="M83.6748 12.5744L83.7009 13.3239L83.6748 12.5744ZM68.7499 14.5314L68.5348 13.8129L68.7499 14.5314ZM56.9742 20.0119L56.5986 19.3627H56.5986L56.9742 20.0119ZM16.5933 12.8124L16.5473 13.561L16.5933 12.8124ZM29.1666 14.5314L29.3579 13.8062L29.1666 14.5314ZM42.8426 20.3148L42.4921 20.9778L42.8426 20.3148ZM56.7815 83.6223L57.1343 84.2841L56.7815 83.6223ZM70.8332 77.6394L70.6419 76.9142H70.6419L70.8332 77.6394ZM83.2713 75.9288L83.3182 76.6773H83.3182L83.2713 75.9288ZM43.2183 83.6223L42.8655 84.2841L43.2183 83.6223ZM29.1666 77.6394L29.3579 76.9142L29.1666 77.6394ZM16.7285 75.9288L16.6817 76.6773L16.7285 75.9288ZM9.08325 67.2653V20.8246H7.58325V67.2653H9.08325ZM92.4166 67.2653V20.5554H90.9166V67.2653H92.4166ZM83.6487 11.8248C78.9365 11.9889 72.9947 12.4778 68.5348 13.8129L68.965 15.2499C73.2294 13.9733 79.0082 13.4874 83.7009 13.3239L83.6487 11.8248ZM68.5348 13.8129C64.6656 14.9713 60.199 17.279 56.5986 19.3627L57.3499 20.661C60.9284 18.59 65.2706 16.3559 68.965 15.2499L68.5348 13.8129ZM16.5473 13.561C20.6051 13.8104 25.3557 14.3015 28.9752 15.2566L29.3579 13.8062C25.5898 12.8119 20.7179 12.3145 16.6393 12.0639L16.5473 13.561ZM28.9752 15.2566C33.2598 16.3872 38.3925 18.8101 42.4921 20.9778L43.1932 19.6518C39.075 17.4742 33.8167 14.9828 29.3579 13.8062L28.9752 15.2566ZM57.1343 84.2841C61.2904 82.0687 66.6075 79.5302 71.0246 78.3646L70.6419 76.9142C66.0469 78.1267 60.6017 80.736 56.4287 82.9604L57.1343 84.2841ZM71.0246 78.3646C74.6038 77.4201 79.2896 76.9293 83.3182 76.6773L83.2245 75.1803C79.1746 75.4336 74.3686 75.9308 70.6419 76.9142L71.0246 78.3646ZM43.5711 82.9604C39.3981 80.736 33.9529 78.1267 29.3579 76.9142L28.9752 78.3646C33.3924 79.5302 38.7095 82.0687 42.8655 84.2841L43.5711 82.9604ZM29.3579 76.9142C25.6313 75.9308 20.8252 75.4336 16.7753 75.1803L16.6817 76.6773C20.7103 76.9293 25.396 77.4201 28.9752 78.3646L29.3579 76.9142ZM90.9166 67.2653C90.9166 71.4692 87.4791 74.9142 83.2245 75.1803L83.3182 76.6773C88.3036 76.3655 92.4166 72.3196 92.4166 67.2653H90.9166ZM92.4166 20.5554C92.4166 15.696 88.5715 11.6533 83.6487 11.8248L83.7009 13.3239C87.7097 13.1843 90.9166 16.4777 90.9166 20.5554H92.4166ZM7.58325 67.2653C7.58325 72.3196 11.6962 76.3655 16.6817 76.6773L16.7753 75.1803C12.5207 74.9142 9.08325 71.4692 9.08325 67.2653H7.58325ZM56.4287 82.9604C52.4293 85.0923 47.5706 85.0923 43.5711 82.9604L42.8655 84.2841C47.306 86.6511 52.6938 86.6511 57.1343 84.2841L56.4287 82.9604ZM56.5986 19.3627C52.4925 21.7391 47.3804 21.8659 43.1932 19.6518L42.4921 20.9778C47.1426 23.4369 52.8034 23.2923 57.3499 20.661L56.5986 19.3627ZM9.08325 20.8246C9.08325 16.6499 12.4423 13.3087 16.5473 13.561L16.6393 12.0639C11.61 11.7548 7.58325 15.8479 7.58325 20.8246H9.08325Z" fill="#F9F9F9"/>
<path d="M50 24.3917V87.4996" stroke="#F9F9F9" stroke-width="1.5"/>
<path d="M20.8333 37.5L37.4999 41.6667" stroke="#F9F9F9" stroke-width="1.5" stroke-linecap="round"/>
<path d="M20.8333 54.1667L37.4999 58.3334" stroke="#F9F9F9" stroke-width="1.5" stroke-linecap="round"/>
<path d="M79.1667 54.1667L62.5001 58.3334" stroke="#F9F9F9" stroke-width="1.5" stroke-linecap="round"/>
<path d="M79.1667 22.9167V39.6262C79.1667 40.7745 79.1667 41.3486 78.7714 41.5807C78.3762 41.8127 77.8357 41.556 76.7546 41.0425L71.5787 38.5838C71.2129 38.4101 71.0301 38.3232 70.8333 38.3232C70.6366 38.3232 70.4537 38.4101 70.088 38.5838L64.912 41.0425C63.831 41.556 63.2904 41.8127 62.8952 41.5807C62.5 41.3486 62.5 40.7745 62.5 39.6262V28.9584" stroke="#F9F9F9" stroke-width="1.5" stroke-linecap="round"/>
</svg>
