<svg width="100" height="100" viewBox="0 0 100 100" fill="none" xmlns="http://www.w3.org/2000/svg">
<g clip-path="url(#clip0_26_1233)">
<path d="M81.2843 88.5372H75.7402L74.1713 43.0727C74.1609 34.205 70.0426 31.2999 68.491 30.2052C68.4203 30.1555 62.3564 26.015 62.3564 26.015L63.5737 23.9451C64.1239 23.01 63.8116 21.8053 62.8762 21.2548L61.7158 20.5723L64.7236 15.4582L66.472 16.4865C66.7767 16.6658 67.121 16.7577 67.4684 16.7577C67.6335 16.7577 67.7993 16.737 67.9618 16.6948C68.4661 16.5641 68.8979 16.2382 69.1623 15.7888L72.0614 10.8594C72.6116 9.92405 72.2993 8.71987 71.3639 8.16939L57.9371 0.27145C57.4875 0.0068224 56.9517 -0.0681117 56.4474 0.0631539C55.943 0.193895 55.5112 0.519832 55.2468 0.969174L52.3475 5.89858C51.7973 6.83394 52.1096 8.03813 53.0449 8.5886L54.793 9.61672L51.7849 14.7311L50.6245 14.0483C50.1749 13.7839 49.6394 13.7082 49.1347 13.84C48.6304 13.9708 48.1986 14.2967 47.9342 14.7458L28.9597 47.0059C28.4095 47.9413 28.7218 49.1457 29.6571 49.6962L31.7726 50.9405L28.138 57.1199C27.8736 57.5693 27.799 58.1051 27.9297 58.61C28.0605 59.1143 28.3864 59.5458 28.8357 59.8102L33.4693 62.5351C33.7822 62.719 34.1251 62.8065 34.4637 62.8065C35.137 62.8065 35.7931 62.4601 36.1594 61.8376L39.7937 55.6584L41.9088 56.9025C42.2136 57.0817 42.5578 57.1736 42.9053 57.1736C43.0703 57.1736 43.2362 57.1529 43.3986 57.1107C43.903 56.98 44.3348 56.6541 44.5991 56.205L47.5373 51.2101L52.2917 54.0068C53.5202 54.7294 54.394 55.8874 54.7522 57.2677C55.1098 58.6477 54.9091 60.0845 54.1862 61.3131L45.7381 75.6771L42.419 73.7249L42.9039 72.9006C43.4542 71.9652 43.1419 70.7608 42.2065 70.2103L17.8817 55.9034C17.4321 55.6391 16.8963 55.5639 16.392 55.6954C15.8873 55.8259 15.4556 56.1518 15.1915 56.6011L12.2303 61.6372C11.68 62.5726 11.9926 63.777 12.928 64.3272L16.6131 66.4948L14.8333 69.5207C14.2831 70.4563 14.5954 71.6608 15.5308 72.211L29.0964 80.1899C29.4011 80.3691 29.7454 80.4611 30.0928 80.4611C30.2579 80.4611 30.4238 80.4404 30.5862 80.3982C31.0906 80.2675 31.5224 79.9415 31.7867 79.4922L33.5665 76.466L35.5628 77.6398L29.1491 88.5372H19.4651C15.7393 88.5372 12.7082 91.5684 12.7082 95.2941V98.035C12.7082 99.1205 13.5877 100 14.6732 100H86.0762C87.1617 100 88.0412 99.1205 88.0412 98.035V95.2941C88.0412 91.5684 85.0101 88.5372 81.2843 88.5372ZM57.6382 4.65561L67.6778 10.5605L66.771 12.1024L56.7314 6.19779L57.6382 4.65561ZM58.1808 11.6095L61.3364 13.4656L58.3286 18.5797L58.2259 18.5195L55.173 16.7237L58.1808 11.6095ZM33.7683 58.1512L32.5224 57.4183L35.1603 52.933L36.4062 53.6659L33.7683 58.1512ZM47.2627 43.9247L42.2081 52.5186L33.3438 47.3049L50.3258 18.4322L59.19 23.6459L55.4761 29.96C54.7147 29.7357 53.9237 29.6162 53.1259 29.6162C50.1754 29.6162 47.4144 31.1943 45.9197 33.7355C43.9399 37.1018 44.5968 41.3018 47.2627 43.9247ZM49.3074 35.7281C50.0989 34.3822 51.562 33.5464 53.1259 33.5464C53.9085 33.5464 54.6817 33.7578 55.3619 34.1576C57.4639 35.3946 58.1685 38.1105 56.9321 40.2123C56.1405 41.5583 54.6775 42.3941 53.1136 42.3941C52.331 42.3941 51.5578 42.1826 50.8779 41.7825C48.7758 40.5461 48.0713 37.8299 49.3074 35.7281ZM29.3954 75.806L19.2169 69.8194L20.0003 68.4871L30.1788 74.4737L29.3954 75.806ZM16.6139 61.9356L17.5831 60.2876L38.52 72.6019L37.5509 74.2499L16.6139 61.9356ZM40.4267 77.1124L45.4394 80.0607C45.7441 80.24 46.0884 80.3319 46.4358 80.3319C46.6009 80.3319 46.7667 80.3112 46.9292 80.2693C47.4335 80.1383 47.8653 79.8124 48.1297 79.3635L57.5742 63.3056C58.8293 61.1721 59.178 58.677 58.5568 56.281C57.9356 53.8847 56.418 51.874 54.2845 50.6193L49.5301 47.8223L50.6366 45.9414C51.437 46.1911 52.2715 46.3244 53.1141 46.3244C56.0648 46.3244 58.8261 44.7461 60.3203 42.2049C62.3237 38.7988 61.6265 34.5401 58.8811 31.9243L60.3602 29.4098C60.3602 29.4098 66.1471 33.3606 66.226 33.4164C67.4276 34.264 70.2418 36.2497 70.2418 43.107C70.2418 43.1298 70.2423 43.1523 70.2431 43.1749L71.8088 88.5372H33.708L40.4267 77.1124ZM84.1111 96.0699H16.6383V95.2941C16.6383 93.7354 17.9064 92.4673 19.4651 92.4673H81.2843C82.843 92.4673 84.1111 93.7354 84.1111 95.2941V96.0699Z" fill="#0C0B39"/>
</g>
<defs>
<clipPath id="clip0_26_1233">
<rect width="100" height="100" fill="white"/>
</clipPath>
</defs>
</svg>
