<svg width="100" height="100" viewBox="0 0 100 100" fill="none" xmlns="http://www.w3.org/2000/svg">
<path d="M88.5417 76.9583L81.6667 78.5833C80.125 78.9583 78.9167 80.125 78.5834 81.6667L77.125 87.7917C76.3334 91.125 72.0834 92.1667 69.875 89.5417L57.4167 75.2083C56.4167 74.0417 56.9584 72.2083 58.4584 71.8333C65.8334 70.0417 72.4583 65.9167 77.3333 60.0417C78.125 59.0833 79.5417 58.9583 80.4167 59.8333L89.6667 69.0833C92.8334 72.25 91.7084 76.2083 88.5417 76.9583Z" fill="#0C0B39"/>
<path d="M11.2499 76.9583L18.1249 78.5833C19.6666 78.9583 20.8749 80.125 21.2083 81.6667L22.6666 87.7917C23.4583 91.125 27.7083 92.1667 29.9166 89.5417L42.3749 75.2083C43.3749 74.0417 42.8333 72.2083 41.3333 71.8333C33.9583 70.0417 27.3333 65.9167 22.4583 60.0417C21.6666 59.0833 20.2499 58.9583 19.3749 59.8333L10.1249 69.0833C6.95828 72.25 8.08328 76.2083 11.2499 76.9583Z" fill="#0C0B39"/>
<path d="M50 8.33331C33.875 8.33331 20.8334 21.375 20.8334 37.5C20.8334 43.5416 22.625 49.0833 25.7084 53.7083C30.2084 60.375 37.3334 65.0833 45.625 66.2916C47.0417 66.5416 48.5 66.6666 50 66.6666C51.5 66.6666 52.9584 66.5416 54.375 66.2916C62.6667 65.0833 69.7917 60.375 74.2917 53.7083C77.375 49.0833 79.1667 43.5416 79.1667 37.5C79.1667 21.375 66.125 8.33331 50 8.33331ZM62.75 36.5833L59.2917 40.0416C58.7084 40.625 58.375 41.75 58.5834 42.5833L59.5834 46.875C60.375 50.25 58.5834 51.5833 55.5834 49.7916L51.4167 47.3333C50.6667 46.875 49.4167 46.875 48.6667 47.3333L44.5 49.7916C41.5 51.5416 39.7084 50.25 40.5 46.875L41.5 42.5833C41.6667 41.7916 41.375 40.625 40.7917 40.0416L37.25 36.5833C35.2084 34.5416 35.875 32.5 38.7084 32.0416L43.1667 31.2916C43.9167 31.1666 44.7917 30.5 45.125 29.8333L47.5834 24.9166C48.9167 22.25 51.0834 22.25 52.4167 24.9166L54.875 29.8333C55.2084 30.5 56.0834 31.1666 56.875 31.2916L61.3334 32.0416C64.125 32.5 64.7917 34.5416 62.75 36.5833Z" fill="#0C0B39"/>
</svg>
