<svg width="100" height="100" viewBox="0 0 100 100" fill="none" xmlns="http://www.w3.org/2000/svg">
<path d="M50.149 17.5352C54.9912 17.5352 58.9166 13.6098 58.9166 8.76758C58.9166 3.92538 54.9912 0 50.149 0C45.3068 0 41.3815 3.92538 41.3815 8.76758C41.3815 13.6098 45.3068 17.5352 50.149 17.5352Z" fill="#0C0B39"/>
<path d="M52.7325 26.5818L51.1678 23.7363L52.5561 21.2115C52.7629 20.8352 52.4903 20.373 52.0602 20.373H48.2459C47.8164 20.373 47.543 20.8348 47.7502 21.2115L49.1414 23.7416L47.5741 26.5926C47.3922 26.9234 47.3329 27.308 47.4063 27.6783L47.6745 29.0287L50.1534 29.7102L52.6104 29.0348L52.8963 27.6885C52.976 27.3119 52.918 26.9193 52.7325 26.5818Z" fill="#0C0B39"/>
<path d="M46.3822 80.9662V91.0258C46.3822 93.8295 48.6551 96.1021 51.4588 96.1021C54.2625 96.1021 56.5353 93.8293 56.5353 91.0258V69.0615L46.3822 80.9662Z" fill="#0C0B39"/>
<path d="M32.2293 83.2834C30.5232 81.8283 29.4759 79.8879 29.1169 77.8395V87.0817C29.1169 88.5526 30.3093 89.7451 31.7804 89.7451C33.2515 89.7451 34.4439 88.5526 34.4439 87.0817V84.6856C33.6617 84.3336 32.915 83.868 32.2293 83.2834Z" fill="#0C0B39"/>
<path d="M34.4439 58.8976H29.1169V74.6336C29.3921 73.0562 30.0781 71.5295 31.1925 70.2228L34.4441 66.4105V58.8976H34.4439Z" fill="#0C0B39"/>
<path d="M65.4792 58.8976V87.0816C65.4792 88.5525 66.6716 89.7451 68.1427 89.7451C69.6138 89.7451 70.8062 88.5525 70.8062 87.0816V58.8976H65.4792Z" fill="#0C0B39"/>
<path d="M46.3555 58.8976L34.3787 72.9402C32.5594 75.0734 32.8139 78.2775 34.9469 80.0969C37.0821 81.9176 40.2858 81.6603 42.1036 79.5287L59.6995 58.8976H46.3555Z" fill="#0C0B39"/>
<path d="M42.6528 37.5408C41.6084 37.5433 34.1121 37.5621 33.0793 37.5646C35.0063 33.4888 34.5692 34.4131 36.4697 30.3927C36.9155 29.4498 37.8615 28.832 38.899 28.7943V33.674L41.7285 33.6668V28.7904C41.7285 28.5588 41.6975 28.167 42.0897 27.8679C42.3172 27.6945 42.6129 27.6371 42.8891 27.7129C43.4709 27.8728 46.5656 28.7236 46.9024 28.8162C46.885 28.7713 43.6399 20.3552 43.6299 20.3295H38.9988C34.6668 20.3295 30.6717 22.8599 28.8201 26.7765C28.2037 28.0804 23.1613 38.7467 22.5674 40.0033C21.1981 42.9011 23.4703 46.1394 26.4029 46.0418C28.2248 46.0373 40.9922 46.0054 42.674 46.0013C45.0106 45.9955 46.8998 44.0967 46.894 41.7603C46.8877 39.2842 44.7793 37.4744 42.6528 37.5408Z" fill="#0C0B39"/>
<path d="M91.9033 49.9037C91.5965 49.9037 10.5492 49.9037 8.09705 49.9037C6.68025 49.9037 5.53162 51.0523 5.53162 52.4691C5.53162 53.8861 6.68025 55.0345 8.09705 55.0345H10.8586V96.0625C10.8586 98.2369 12.6215 99.9998 14.7959 99.9998C16.9703 99.9998 18.7332 98.2369 18.7332 96.0625V55.0345C21.5412 55.0345 78.5972 55.0345 81.4988 55.0345V96.0627C81.4988 98.2371 83.2617 100 85.4361 100C87.6105 100 89.3734 98.2371 89.3734 96.0627V55.0345H91.9033C93.3201 55.0345 94.4687 53.8859 94.4687 52.4691C94.4689 51.0523 93.3203 49.9037 91.9033 49.9037Z" fill="#0C0B39"/>
<path d="M77.6752 40.0043C77.0824 38.7506 72.0379 28.0793 71.4225 26.7775C69.5709 22.8611 65.5758 20.3304 61.2438 20.3304H56.6758C56.6588 20.375 53.4213 28.7717 53.4039 28.8168C53.7537 28.7207 56.8385 27.8726 57.4172 27.7135C57.6932 27.6377 57.9887 27.6949 58.2166 27.8685C58.6088 28.1674 58.5778 28.5594 58.5778 28.791V33.7058H61.3067V28.7933C62.359 28.8172 63.3225 29.4386 63.7735 30.3931C65.6754 34.4168 65.2621 33.5422 67.1717 37.5816C63.6295 37.5816 61.1371 37.5816 57.5797 37.5816C55.2432 37.5816 53.3492 39.4756 53.3492 41.8121C53.3492 44.1486 55.2432 46.0426 57.5797 46.0426C59.293 46.0426 72.1139 46.0426 73.8508 46.0426C76.9414 46.0426 79.0045 42.815 77.6752 40.0043Z" fill="#0C0B39"/>
</svg>
